<svg xmlns="http://www.w3.org/2000/svg" xmlns:xlink="http://www.w3.org/1999/xlink" width="116" zoomAndPan="magnify" viewBox="0 0 87 77.249999" height="103" preserveAspectRatio="xMidYMid meet" version="1.0"><defs><clipPath id="0f8deac849"><path d="M 30 0 L 83 0 L 83 76.507812 L 30 76.507812 Z M 30 0 " clip-rule="nonzero"/></clipPath><clipPath id="81523692fd"><path d="M 21 64 L 33 64 L 33 76.507812 L 21 76.507812 Z M 21 64 " clip-rule="nonzero"/></clipPath><clipPath id="11b1c98678"><path d="M 4 23 L 50 23 L 50 76.507812 L 4 76.507812 Z M 4 23 " clip-rule="nonzero"/></clipPath></defs><g clip-path="url(#0f8deac849)"><path fill="#000000" d="M 30.597656 0.0820312 L 30.597656 17.214844 L 57 43.828125 L 57 76.417969 L 82.949219 76.417969 L 82.949219 0.0820312 Z M 53.835938 23.527344 L 37.949219 23.527344 L 37.949219 9.226562 L 53.824219 9.226562 L 53.824219 23.527344 Z M 75.597656 62.378906 L 59.710938 62.378906 L 59.710938 48.070312 L 75.597656 48.070312 Z M 75.597656 23.527344 L 59.710938 23.527344 L 59.710938 9.226562 L 75.597656 9.226562 Z M 75.597656 23.527344 " fill-opacity="1" fill-rule="nonzero"/></g><g clip-path="url(#81523692fd)"><path fill="#000000" d="M 21.183594 64.347656 L 32.945312 64.347656 L 32.945312 76.417969 L 21.183594 76.417969 Z M 21.183594 64.347656 " fill-opacity="1" fill-rule="nonzero"/></g><g clip-path="url(#11b1c98678)"><path fill="#000000" d="M 4.203125 46.769531 L 4.203125 76.417969 L 14.128906 76.417969 L 14.128906 57.253906 L 40.007812 57.253906 L 40.007812 76.417969 L 49.9375 76.417969 L 49.9375 46.769531 L 27.070312 23.71875 Z M 4.203125 46.769531 " fill-opacity="1" fill-rule="nonzero"/></g></svg>