<svg width="81" height="80" viewBox="0 0 81 80" fill="none" xmlns="http://www.w3.org/2000/svg">
<g clip-path="url(#clip0_66_135)">
<rect x="0.5" width="80" height="80" rx="40" fill="#4640DE" fill-opacity="0.06"/>
<path d="M28.5444 19.3002C28.8025 18.6912 25.2142 19.8213 24.9092 19.9664C23.1326 20.8096 21.7647 22.057 20.9993 23.9002C20.2585 25.6842 20.1289 27.6613 20.1726 29.5925C20.3086 35.5344 24.7956 43.025 20.5422 48.3226C18.3454 51.0586 14.4958 51.7349 11.5902 53.7024C6.05692 57.449 4.93852 65.784 8.14545 71.6464C11.3524 77.5088 17.8996 80.9712 24.5097 81.952C31.1199 82.9328 37.8505 81.7584 44.3684 80.2832C48.8964 79.2586 53.5278 78.0229 57.2153 75.2021C65.9065 68.5541 61.8553 60.2266 57.867 52.4405C55.3108 47.4501 59.8964 45.1008 61.898 38.9066C65.4996 27.7616 60.3406 16.9456 50.4889 12.6736C34.346 5.67463 28.5769 19.2234 28.5444 19.3002Z" fill="#D76A40"/>
<path d="M74.1599 83.4922H10.4346C10.4346 83.4922 13.4068 72.0208 17.6346 65.225C21.8623 58.425 37.3818 56.1125 37.3818 56.1125L42.297 56.9354L47.2122 56.1125C47.2122 56.1125 62.737 58.425 66.9647 65.225C71.193 72.0208 74.1599 83.4922 74.1599 83.4922Z" fill="#5B4850"/>
<path d="M28.1001 58.3807C35.5636 69.0479 49.6788 67.6874 56.4985 58.3807C56.4985 58.3807 42.8169 52.0101 28.1001 58.3807Z" fill="#F1B69A"/>
<path d="M42.1786 62.1829C39.5119 62.1829 37.3508 60.0213 37.3508 57.3551V48.1322H47.0068V57.3551C47.0068 60.0213 44.8452 62.1829 42.1786 62.1829Z" fill="#F1B69A"/>
<path d="M47.007 47.065V52.7274C47.007 52.7274 45.3857 55.5466 42.1788 55.5466C39.6022 55.5466 37.3516 53.1023 37.3516 53.1023V47.065H47.007Z" fill="#150A08"/>
<path d="M28.6709 37.1519C26.0602 33.1861 23.0325 35.7338 23.032 38.5263C23.032 42.5695 27.4176 46.0517 29.9237 43.1498C32.4298 40.2474 28.6709 37.1519 28.6709 37.1519Z" fill="#F1B69A"/>
<path d="M28.1003 38.9845C26.4757 35.9477 24.2299 38.7813 25.0875 39.9061" stroke="#E07E61" stroke-miterlimit="10" stroke-linecap="round"/>
<path d="M54.7508 37.1519C57.3614 33.1861 60.3892 35.7338 60.3892 38.5263C60.3892 42.5695 56.0036 46.0517 53.4974 43.1498C50.9918 40.2474 54.7508 37.1519 54.7508 37.1519Z" fill="#F1B69A"/>
<path d="M55.3223 38.9845C56.9468 35.9477 59.1927 38.7813 58.3351 39.9061" stroke="#E07E61" stroke-miterlimit="10" stroke-linecap="round"/>
<path d="M41.6987 52.7274C31.3824 52.7232 25.2821 41.4501 27.6939 29.8752C29.6805 20.337 53.7408 20.3408 55.7275 29.8752C58.1392 41.4506 52.0197 52.7317 41.6987 52.7274Z" fill="#F1B69A"/>
<path opacity="0.5" d="M40.3286 41.1402C41.3905 41.6469 43.7819 40.5231 43.8315 41.1402C43.8811 41.7573 42.5622 42.3034 42.0801 42.3034C41.5979 42.3034 40.3286 41.1402 40.3286 41.1402Z" fill="#F1B69A"/>
<path d="M40.3627 38.0298C38.8571 41.2842 41.1083 41.9157 41.7109 41.9941" stroke="#E07E61" stroke-miterlimit="10" stroke-linecap="round"/>
<path d="M37.631 29.1605C36.9862 27.721 33.2086 28.3792 32.6748 29.4042C32.1404 30.4293 33.9084 30.7167 35.2204 30.6527C36.5324 30.5877 38.0417 30.0768 37.631 29.1605Z" fill="#D76A40"/>
<path d="M45.7909 29.1605C46.4357 27.721 50.2133 28.3792 50.7472 29.4042C51.281 30.4293 49.5136 30.7167 48.2016 30.6527C46.8896 30.5877 45.3802 30.0768 45.7909 29.1605Z" fill="#150A08"/>
<path d="M34.9019 34.7093C34.9019 35.2826 35.3664 35.7471 35.9397 35.7471C36.5131 35.7471 36.9776 35.2826 36.9776 34.7093C36.9776 34.1359 36.5131 33.6714 35.9397 33.6714C35.3664 33.6714 34.9019 34.1359 34.9019 34.7093Z" fill="#150A08"/>
<path d="M48.5201 34.7093C48.5201 35.2826 48.0555 35.7471 47.4822 35.7471C46.9089 35.7471 46.4443 35.2826 46.4443 34.7093C46.4443 34.1359 46.9089 33.6714 47.4822 33.6714C48.0555 33.6714 48.5201 34.1359 48.5201 34.7093Z" fill="#150A08"/>
<path d="M37.8496 43.7093C41.7984 44.1338 44.4384 43.6997 46.312 43.7637C46.312 43.7637 43.9467 47.1045 41.1659 46.44C38.3851 45.7754 37.8496 43.7093 37.8496 43.7093Z" fill="white"/>
<path opacity="0.5" d="M40.5793 47.4112C42.0235 47.4149 44.0945 46.664 44.415 47.4112C44.7355 48.1589 42.9723 49.6538 41.8785 49.5471C40.7846 49.4405 38.9302 47.4069 40.5793 47.4112Z" fill="#F1B69A"/>
<path d="M34.9016 19.7034C34.883 29.4218 53.3432 34.0912 56.9224 31.7936C60.5016 29.496 57.7112 21.2496 48.2835 19.016C38.8552 16.7829 34.907 16.8096 34.9016 19.7034Z" fill="#D76A40"/>
<path d="M34.9418 19.6346C37.2943 24.3306 30.8303 34.6949 27.1573 34.0085C23.4847 33.3221 23.4847 29.2618 26.3493 24.448C29.2143 19.6346 33.8255 17.4064 34.9418 19.6346Z" fill="#D76A40"/>
</g>
<defs>
<clipPath id="clip0_66_135">
<rect x="0.5" width="80" height="80" rx="40" fill="white"/>
</clipPath>
</defs>
</svg>
