<svg width="81" height="80" viewBox="0 0 81 80" fill="none" xmlns="http://www.w3.org/2000/svg">
<g clip-path="url(#clip0_63_602)">
<rect x="0.5" width="80" height="80" rx="40" fill="#4640DE" fill-opacity="0.06"/>
<path d="M56.6259 36.7173C56.9565 32.1562 60.4253 19.4693 52.9379 20.3306C51.9683 13.7242 45.7789 10.3808 39.8152 10.6858C23.6397 11.513 21.1373 26.289 23.6728 36.7168C27.7773 47.6496 48.8701 39.1024 56.6237 36.7344C56.6248 36.729 56.6253 36.7232 56.6259 36.7173Z" fill="#D76A40"/>
<path d="M76.0391 85.9872H4.7666C4.7666 85.9872 6.92767 74.0336 11.8263 67.1525C16.725 60.2672 34.9053 57.7568 34.9053 57.7568L40.4029 58.6048L45.9005 57.7568C45.9005 57.7568 64.0866 60.2672 68.9853 67.1525C73.8839 74.0336 76.0391 85.9872 76.0391 85.9872Z" fill="#5B4850"/>
<path d="M30.6825 58.2703C35.5251 57.1557 39.6478 57.481 40.3091 57.545C40.3091 57.545 40.3091 57.545 40.3145 57.545C40.9758 57.481 45.0984 57.1557 49.9411 58.2703C50.4024 62.6063 48.6121 68.0672 40.403 68.0922C32.0921 68.1178 30.2131 62.6597 30.6825 58.2703Z" fill="white"/>
<path d="M40.2843 63.8272C37.6176 63.8272 35.4565 61.6656 35.4565 58.9989V49.7765H45.1125V58.9989C45.112 61.6656 42.9509 63.8272 40.2843 63.8272Z" fill="#F1B69A"/>
<path d="M45.1125 49.2363V54.8987C45.1125 54.8987 43.4912 57.7179 40.2842 57.7179C37.7077 57.7179 35.457 55.2736 35.457 55.2736V49.2363H45.1125Z" fill="#150A08"/>
<path d="M26.7761 38.7968C24.1655 34.8304 21.1372 37.3787 21.1372 40.1707C21.1372 44.2139 25.5228 47.696 28.0289 44.7941C30.5356 41.8917 26.7761 38.7968 26.7761 38.7968Z" fill="#F1B69A"/>
<path d="M26.2053 40.6288C24.5807 37.592 22.3349 40.4256 23.1925 41.5504" stroke="#E07E61" stroke-miterlimit="10" stroke-linecap="round"/>
<path d="M52.8565 38.7968C55.4672 34.8304 58.4954 37.3787 58.4954 40.1707C58.4954 44.2139 54.1098 47.696 51.6037 44.7941C49.0976 41.8917 52.8565 38.7968 52.8565 38.7968Z" fill="#F1B69A"/>
<path d="M53.4272 40.6288C55.0518 37.592 57.2976 40.4256 56.44 41.5504" stroke="#E07E61" stroke-miterlimit="10" stroke-linecap="round"/>
<path d="M39.8046 54.3717C29.4884 54.3674 23.3881 43.0944 25.7998 31.5194C27.7865 21.9813 51.8468 21.985 53.8334 31.5194C56.2446 43.0949 50.1257 54.376 39.8046 54.3717Z" fill="#F1B69A"/>
<path d="M55.0284 35.3141C55.0284 35.3141 54.8951 45.7035 51.0178 50.5621C47.1452 55.4208 40.285 55.7349 40.285 55.7349C40.285 55.7349 32.598 55.4208 28.7255 50.5621C24.853 45.7035 24.7148 35.3141 24.7148 35.3141L25.2524 34.2688C25.645 37.0539 27.4674 44.2704 29.6572 45.8651C33.2439 44.6651 35.9282 44.5312 40.0242 44.5312C44.4034 44.5312 47.1948 45.0021 50.238 45.384C52.0007 43.8325 54.1356 36.8059 54.4908 34.2688L55.0284 35.3141Z" fill="#D76A40"/>
<path opacity="0.5" d="M38.4341 42.7845C39.4959 43.2912 41.8874 42.1675 41.937 42.7845C41.9866 43.4016 40.6677 43.9477 40.1855 43.9477C39.7029 43.9477 38.4341 42.7845 38.4341 42.7845Z" fill="#F1B69A"/>
<path d="M38.4676 39.6741C36.962 42.9285 39.2133 43.56 39.8159 43.6384" stroke="#E07E61" stroke-miterlimit="10" stroke-linecap="round"/>
<path d="M36.0635 45.8656C40.0123 46.2901 42.6523 45.856 44.5259 45.92C44.5259 45.92 42.1606 49.2608 39.3798 48.5963C36.5995 47.9317 36.0635 45.8656 36.0635 45.8656Z" fill="white"/>
<path d="M35.7366 30.8048C35.0918 29.3653 31.3142 30.0234 30.7803 31.0485C30.2465 32.0736 32.0139 32.3616 33.3259 32.297C34.6379 32.2325 36.1467 31.721 35.7366 30.8048Z" fill="#D76A40"/>
<path d="M43.8962 30.8048C44.541 29.3653 48.3186 30.0234 48.8525 31.0485C49.3863 32.0736 47.6189 32.3616 46.3069 32.297C44.9954 32.2325 43.4861 31.721 43.8962 30.8048Z" fill="#D76A40"/>
<path opacity="0.5" d="M38.7931 49.5675C40.2374 49.5712 42.3083 48.8197 42.6289 49.5675C42.9494 50.3152 41.1862 51.8101 40.0923 51.7029C38.9985 51.5963 37.1441 49.5632 38.7931 49.5675Z" fill="#F1B69A"/>
<path d="M33.0068 36.3536C33.0068 36.9269 33.4714 37.3915 34.0447 37.3915C34.618 37.3915 35.0826 36.9269 35.0826 36.3536C35.0826 35.7803 34.618 35.3157 34.0447 35.3157C33.4719 35.3157 33.0068 35.7803 33.0068 36.3536Z" fill="#150A08"/>
<path d="M45.5877 37.3915C46.1609 37.3915 46.6255 36.9268 46.6255 36.3536C46.6255 35.7804 46.1609 35.3157 45.5877 35.3157C45.0145 35.3157 44.5498 35.7804 44.5498 36.3536C44.5498 36.9268 45.0145 37.3915 45.5877 37.3915Z" fill="#150A08"/>
<path d="M31.9126 24.5499L34.3163 23.9669C34.3163 23.9669 31.1862 28.9909 37.855 29.9547C44.5238 30.9184 51.471 26.4037 45.9323 24.1008L47.9457 23.9669L43.1009 20.2507L31.9126 24.5499Z" fill="#D76A40"/>
</g>
<defs>
<clipPath id="clip0_63_602">
<rect x="0.5" width="80" height="80" rx="40" fill="white"/>
</clipPath>
</defs>
</svg>
