<svg xmlns="http://www.w3.org/2000/svg" xmlns:xlink="http://www.w3.org/1999/xlink" width="121" zoomAndPan="magnify" viewBox="0 0 90.75 86.999996" height="116" preserveAspectRatio="xMidYMid meet" version="1.0"><defs><clipPath id="6c18054d61"><path d="M 30 0.121094 L 62 0.121094 L 62 11 L 30 11 Z M 30 0.121094 " clip-rule="nonzero"/></clipPath><clipPath id="f0b94c5f36"><path d="M 0 50 L 89.753906 50 L 89.753906 86.878906 L 0 86.878906 Z M 0 50 " clip-rule="nonzero"/></clipPath></defs><path fill="#100f0d" d="M 46.125 21.515625 C 55.65625 21.515625 61.742188 18.449219 61.742188 16.339844 L 61.742188 10.554688 C 58.09375 12.84375 52.085938 14.019531 46.125 14.019531 C 40.160156 14.019531 34.15625 12.84375 30.507812 10.554688 L 30.507812 16.339844 C 30.507812 18.449219 36.589844 21.515625 46.125 21.515625 " fill-opacity="1" fill-rule="nonzero"/><g clip-path="url(#6c18054d61)"><path fill="#100f0d" d="M 46.125 10.488281 C 55.65625 10.488281 61.742188 7.421875 61.742188 5.3125 C 61.742188 3.199219 55.65625 0.132812 46.125 0.132812 C 36.589844 0.132812 30.507812 3.199219 30.507812 5.3125 C 30.507812 7.421875 36.589844 10.488281 46.125 10.488281 " fill-opacity="1" fill-rule="nonzero"/></g><path fill="#100f0d" d="M 21.242188 31.660156 C 24.886719 31.660156 28.015625 31.210938 30.507812 30.539062 C 31.152344 30.363281 31.738281 30.171875 32.292969 29.972656 C 32.5 29.894531 32.699219 29.820312 32.894531 29.742188 C 33.417969 29.535156 33.902344 29.320312 34.324219 29.097656 C 34.441406 29.039062 34.535156 28.976562 34.644531 28.914062 C 34.996094 28.710938 35.308594 28.507812 35.582031 28.300781 C 35.660156 28.242188 35.75 28.183594 35.820312 28.121094 C 36.117188 27.875 36.34375 27.628906 36.511719 27.386719 C 36.550781 27.328125 36.582031 27.277344 36.613281 27.21875 C 36.761719 26.96875 36.863281 26.71875 36.863281 26.484375 C 36.863281 26.25 36.761719 26 36.613281 25.746094 C 36.582031 25.691406 36.550781 25.636719 36.511719 25.582031 C 36.34375 25.335938 36.117188 25.089844 35.820312 24.84375 C 35.75 24.785156 35.660156 24.726562 35.582031 24.664062 C 35.308594 24.457031 34.996094 24.253906 34.640625 24.050781 C 34.535156 23.988281 34.441406 23.929688 34.324219 23.867188 C 33.902344 23.644531 33.417969 23.429688 32.894531 23.222656 C 32.699219 23.144531 32.5 23.070312 32.292969 22.996094 C 31.738281 22.796875 31.152344 22.601562 30.507812 22.425781 C 28.015625 21.753906 24.886719 21.304688 21.242188 21.304688 C 11.710938 21.304688 5.625 24.371094 5.625 26.484375 C 5.625 28.59375 11.710938 31.660156 21.242188 31.660156 " fill-opacity="1" fill-rule="nonzero"/><g clip-path="url(#f0b94c5f36)"><path fill="#100f0d" d="M 89.226562 51.707031 C 88.691406 50.894531 87.605469 50.671875 86.796875 51.210938 L 38.957031 83.089844 L 2.730469 66.625 C 1.851562 66.226562 0.808594 66.617188 0.40625 67.507812 C 0.0078125 68.394531 0.402344 69.441406 1.285156 69.84375 L 38.394531 86.710938 C 38.625 86.816406 38.871094 86.867188 39.117188 86.867188 C 39.457031 86.867188 39.792969 86.769531 40.085938 86.574219 L 88.730469 54.152344 C 89.539062 53.617188 89.761719 52.519531 89.226562 51.707031 " fill-opacity="1" fill-rule="nonzero"/></g><path fill="#100f0d" d="M 11.21875 56.734375 C 11.257812 56.824219 11.285156 56.921875 11.320312 57.011719 C 11.480469 57.4375 11.613281 57.867188 11.714844 58.304688 C 11.753906 58.464844 11.789062 58.621094 11.820312 58.78125 C 11.921875 59.351562 11.992188 59.925781 11.992188 60.503906 C 11.992188 61.144531 11.90625 61.78125 11.777344 62.414062 C 11.753906 62.53125 11.734375 62.652344 11.703125 62.769531 C 11.683594 62.859375 11.640625 62.945312 11.613281 63.03125 L 5.671875 60.238281 Z M 43.410156 36.417969 C 43.460938 36.472656 43.523438 36.511719 43.574219 36.566406 C 44.027344 37.058594 44.507812 37.515625 45.03125 37.910156 C 45.050781 37.925781 45.066406 37.941406 45.085938 37.957031 C 45.625 38.355469 46.203125 38.6875 46.808594 38.976562 C 46.917969 39.027344 47.027344 39.085938 47.140625 39.136719 C 47.730469 39.394531 48.347656 39.601562 48.980469 39.746094 C 49.097656 39.773438 49.21875 39.792969 49.335938 39.816406 C 50.003906 39.949219 50.6875 40.035156 51.382812 40.035156 C 51.863281 40.035156 52.339844 39.996094 52.808594 39.933594 C 52.960938 39.910156 53.109375 39.875 53.261719 39.84375 C 53.578125 39.789062 53.886719 39.722656 54.195312 39.636719 C 54.363281 39.589844 54.53125 39.53125 54.699219 39.476562 C 54.980469 39.382812 55.253906 39.28125 55.527344 39.164062 C 55.695312 39.089844 55.859375 39.015625 56.023438 38.9375 C 56.285156 38.804688 56.542969 38.664062 56.796875 38.511719 C 56.949219 38.421875 57.097656 38.332031 57.246094 38.234375 C 57.511719 38.058594 57.769531 37.859375 58.019531 37.65625 C 58.132812 37.566406 58.25 37.484375 58.359375 37.386719 C 59.039062 36.796875 59.648438 36.121094 60.164062 35.367188 L 73.691406 41.726562 C 73.605469 41.988281 73.570312 42.253906 73.5 42.519531 C 73.441406 42.753906 73.378906 42.984375 73.332031 43.222656 C 73.160156 44.078125 73.039062 44.941406 73.039062 45.8125 C 73.039062 46.429688 73.09375 47.035156 73.175781 47.636719 C 73.199219 47.824219 73.238281 48.003906 73.269531 48.191406 C 73.34375 48.613281 73.4375 49.027344 73.550781 49.441406 C 73.605469 49.636719 73.660156 49.832031 73.722656 50.023438 C 73.863281 50.460938 74.03125 50.890625 74.21875 51.3125 C 74.277344 51.445312 74.328125 51.585938 74.390625 51.71875 C 74.410156 51.761719 74.425781 51.804688 74.445312 51.847656 L 46.535156 70.683594 C 46.484375 70.628906 46.421875 70.589844 46.371094 70.535156 C 45.914062 70.042969 45.429688 69.585938 44.898438 69.195312 C 44.890625 69.1875 44.882812 69.179688 44.875 69.171875 C 44.339844 68.78125 43.761719 68.460938 43.164062 68.175781 C 43.050781 68.121094 42.941406 68.0625 42.824219 68.011719 C 42.238281 67.757812 41.632812 67.558594 41.003906 67.414062 C 40.882812 67.386719 40.761719 67.367188 40.640625 67.34375 C 39.976562 67.214844 39.304688 67.128906 38.617188 67.128906 C 37.820312 67.128906 37.050781 67.238281 36.296875 67.410156 C 36.175781 67.4375 36.054688 67.457031 35.933594 67.488281 C 35.222656 67.671875 34.542969 67.933594 33.894531 68.257812 C 33.769531 68.324219 33.648438 68.390625 33.527344 68.457031 C 32.878906 68.8125 32.265625 69.222656 31.707031 69.707031 C 31.644531 69.761719 31.589844 69.824219 31.527344 69.878906 C 30.984375 70.371094 30.492188 70.921875 30.054688 71.527344 C 30.019531 71.570312 29.976562 71.601562 29.945312 71.648438 L 14.863281 64.558594 C 14.945312 64.300781 14.980469 64.035156 15.046875 63.777344 C 15.109375 63.542969 15.167969 63.316406 15.214844 63.082031 C 15.382812 62.230469 15.5 61.371094 15.5 60.503906 C 15.5 59.636719 15.382812 58.777344 15.214844 57.925781 C 15.175781 57.722656 15.132812 57.523438 15.085938 57.320312 C 14.882812 56.492188 14.621094 55.675781 14.261719 54.890625 C 14.25 54.871094 14.25 54.847656 14.238281 54.828125 Z M 51.511719 31.300781 L 56.886719 33.828125 C 56.855469 33.867188 56.839844 33.914062 56.808594 33.953125 C 56.695312 34.082031 56.5625 34.1875 56.445312 34.308594 C 56.128906 34.632812 55.796875 34.925781 55.429688 35.183594 C 55.261719 35.300781 55.085938 35.410156 54.90625 35.511719 C 54.539062 35.726562 54.148438 35.90625 53.742188 36.050781 C 53.566406 36.113281 53.394531 36.1875 53.210938 36.238281 C 52.621094 36.398438 52.011719 36.507812 51.382812 36.507812 C 50.828125 36.507812 50.285156 36.425781 49.757812 36.300781 C 49.601562 36.261719 49.449219 36.207031 49.296875 36.160156 C 48.921875 36.042969 48.558594 35.898438 48.207031 35.722656 C 48.0625 35.648438 47.914062 35.578125 47.773438 35.492188 C 47.355469 35.242188 46.960938 34.957031 46.597656 34.625 C 46.558594 34.585938 46.511719 34.5625 46.472656 34.523438 C 46.464844 34.515625 46.457031 34.503906 46.449219 34.496094 Z M 76.765625 43.898438 C 76.792969 43.773438 76.8125 43.652344 76.84375 43.527344 C 76.867188 43.433594 76.914062 43.34375 76.9375 43.253906 L 82.976562 46.089844 L 77.410156 49.847656 C 77.371094 49.753906 77.339844 49.660156 77.300781 49.570312 C 77.117188 49.113281 76.96875 48.640625 76.851562 48.164062 C 76.8125 48 76.773438 47.835938 76.742188 47.667969 C 76.628906 47.058594 76.550781 46.441406 76.550781 45.8125 C 76.550781 45.171875 76.636719 44.53125 76.765625 43.898438 Z M 38.886719 75.847656 L 33.226562 73.191406 C 33.253906 73.160156 33.269531 73.121094 33.292969 73.089844 C 33.382812 72.988281 33.492188 72.910156 33.585938 72.8125 C 33.914062 72.476562 34.269531 72.171875 34.652344 71.910156 C 34.8125 71.800781 34.976562 71.707031 35.144531 71.609375 C 35.515625 71.398438 35.902344 71.226562 36.304688 71.085938 C 36.476562 71.027344 36.640625 70.957031 36.816406 70.910156 C 37.398438 70.757812 37.996094 70.65625 38.617188 70.65625 C 39.171875 70.65625 39.710938 70.738281 40.238281 70.863281 C 40.398438 70.902344 40.550781 70.957031 40.703125 71.003906 C 41.074219 71.117188 41.433594 71.261719 41.777344 71.433594 C 41.933594 71.511719 42.085938 71.585938 42.230469 71.675781 C 42.613281 71.902344 42.96875 72.167969 43.304688 72.464844 C 43.378906 72.527344 43.460938 72.578125 43.53125 72.648438 C 43.542969 72.660156 43.550781 72.675781 43.566406 72.6875 Z M 1.265625 62.066406 L 11.886719 67.058594 L 29.894531 75.519531 L 38.296875 79.46875 C 38.535156 79.578125 38.785156 79.632812 39.039062 79.632812 C 39.382812 79.632812 39.726562 79.535156 40.019531 79.335938 L 47.121094 74.539062 C 47.121094 74.539062 47.125 74.535156 47.125 74.535156 L 77.765625 53.859375 C 77.765625 53.859375 77.765625 53.859375 77.769531 53.859375 C 77.769531 53.855469 77.769531 53.859375 77.773438 53.855469 L 87.511719 47.28125 C 88.039062 46.925781 88.335938 46.316406 88.285156 45.679688 C 88.238281 45.042969 87.851562 44.484375 87.277344 44.214844 L 76.675781 39.230469 C 76.671875 39.230469 76.671875 39.230469 76.671875 39.230469 L 61.742188 32.210938 L 61.742188 21.511719 C 58.050781 23.828125 51.972656 25.042969 46.125 25.042969 C 44.058594 25.042969 41.96875 24.882812 39.964844 24.585938 C 40.222656 25.183594 40.371094 25.8125 40.371094 26.484375 L 40.371094 34.164062 L 36.863281 36.378906 L 36.863281 31.65625 C 36.421875 31.933594 35.941406 32.191406 35.4375 32.4375 C 35.199219 32.550781 34.9375 32.652344 34.6875 32.761719 C 34.414062 32.878906 34.152344 33 33.867188 33.109375 C 33.515625 33.242188 33.140625 33.363281 32.769531 33.484375 C 32.570312 33.550781 32.375 33.621094 32.167969 33.683594 C 31.746094 33.8125 31.308594 33.925781 30.867188 34.039062 C 27.894531 34.789062 24.539062 35.1875 21.242188 35.1875 C 15.394531 35.1875 9.316406 33.972656 5.625 31.65625 L 5.625 37.507812 C 5.625 39.621094 11.710938 42.6875 21.242188 42.6875 C 23.613281 42.6875 25.769531 42.496094 27.675781 42.179688 L 21.28125 46.214844 C 21.269531 46.214844 21.257812 46.214844 21.242188 46.214844 C 15.28125 46.214844 9.277344 45.039062 5.625 42.75 L 5.625 48.535156 C 5.625 49.777344 7.785156 51.328125 11.46875 52.410156 L 10.972656 52.722656 L 1.074219 58.96875 C 0.53125 59.3125 0.214844 59.925781 0.257812 60.574219 C 0.296875 61.21875 0.683594 61.789062 1.265625 62.066406 " fill-opacity="1" fill-rule="nonzero"/><path fill="#100f0d" d="M 38.203125 49.886719 L 43.429688 53.332031 C 43.15625 53.59375 42.890625 53.800781 42.644531 53.957031 C 42.078125 54.304688 41.601562 54.527344 41.179688 54.636719 C 40.871094 54.722656 40.550781 54.753906 40.296875 54.703125 C 39.945312 54.617188 39.644531 54.511719 39.390625 54.378906 C 38.574219 53.90625 38.085938 53.191406 37.898438 52.203125 C 37.765625 51.511719 37.867188 50.734375 38.203125 49.886719 Z M 50.375 51.636719 C 51.109375 51.519531 51.917969 51.769531 52.90625 52.429688 L 52.972656 52.484375 C 53.007812 52.507812 53.128906 52.609375 53.328125 52.882812 C 53.472656 53.070312 53.601562 53.328125 53.683594 53.59375 C 53.765625 53.910156 53.78125 54.328125 53.722656 54.796875 C 53.707031 54.949219 53.664062 55.125 53.605469 55.316406 L 49.003906 52.28125 C 49.488281 51.929688 49.941406 51.71875 50.375 51.636719 Z M 35.417969 48.050781 C 35.101562 48.714844 34.859375 49.378906 34.675781 50.082031 C 34.402344 51.195312 34.339844 52.183594 34.480469 53.09375 C 34.609375 54.027344 34.929688 54.910156 35.453125 55.710938 C 35.984375 56.511719 36.6875 57.144531 37.546875 57.597656 C 39.113281 58.375 40.757812 58.492188 42.441406 57.945312 C 43.828125 57.460938 45.148438 56.519531 46.277344 55.210938 L 51.539062 58.671875 C 50.828125 59.484375 50.121094 60.039062 49.425781 60.316406 C 48.515625 60.683594 47.6875 60.742188 46.992188 60.511719 C 46.222656 60.148438 45.335938 60.425781 44.800781 61.207031 C 44.394531 61.742188 44.351562 62.332031 44.449219 62.699219 C 44.507812 62.9375 44.71875 63.503906 45.402344 63.71875 C 46.195312 64.035156 46.996094 64.195312 47.792969 64.195312 C 48.761719 64.195312 49.730469 63.960938 50.6875 63.484375 C 52.003906 62.824219 53.222656 61.816406 54.304688 60.496094 L 54.703125 60.757812 C 55.199219 61.085938 55.75 61.160156 56.273438 60.976562 C 56.703125 60.816406 57.058594 60.535156 57.304688 60.15625 C 57.542969 59.792969 57.664062 59.355469 57.660156 58.890625 C 57.644531 58.300781 57.359375 57.796875 56.855469 57.460938 L 56.410156 57.167969 C 57.082031 55.640625 57.285156 54.238281 57.019531 52.996094 C 56.691406 51.496094 56.007812 50.339844 54.996094 49.558594 C 54.472656 49.128906 53.878906 48.785156 53.195312 48.511719 C 52.480469 48.207031 51.691406 48.097656 50.832031 48.085938 L 50.824219 48.085938 C 49.96875 48.128906 49.085938 48.378906 48.207031 48.828125 C 47.515625 49.164062 46.820312 49.667969 46.089844 50.363281 L 40.734375 46.828125 C 41.128906 46.65625 41.519531 46.542969 41.921875 46.480469 C 42.28125 46.433594 42.65625 46.441406 43.003906 46.523438 C 43.421875 46.628906 43.78125 46.769531 44.121094 46.945312 C 45.160156 47.460938 46.015625 46.925781 46.40625 46.171875 C 46.804688 45.386719 46.617188 44.554688 45.820312 43.777344 C 44.265625 42.804688 42.664062 42.519531 41.046875 42.945312 C 39.835938 43.253906 38.722656 43.894531 37.734375 44.847656 L 37.089844 44.421875 C 36.621094 44.109375 36.082031 44.054688 35.496094 44.238281 C 34.554688 44.597656 34.042969 45.425781 34.128906 46.476562 C 34.183594 46.84375 34.367188 47.355469 34.933594 47.726562 L 35.417969 48.050781 " fill-opacity="1" fill-rule="nonzero"/></svg>