<svg xmlns="http://www.w3.org/2000/svg" xmlns:xlink="http://www.w3.org/1999/xlink" width="116" zoomAndPan="magnify" viewBox="0 0 87 79.499998" height="106" preserveAspectRatio="xMidYMid meet" version="1.0"><defs><clipPath id="8608ed3fd7"><path d="M 0.273438 3 L 85.984375 3 L 85.984375 79 L 0.273438 79 Z M 0.273438 3 " clip-rule="nonzero"/></clipPath></defs><path fill="#ffffff" d="M 84.335938 69.691406 C 82.429688 78.582031 79.273438 78.5625 32.511719 77.273438 C 11.066406 76.679688 3.492188 76.632812 2.679688 68.75 C 2.441406 66.457031 2.195312 39.578125 5.253906 35.34375 C 6.882812 33.089844 79.539062 33.734375 83.507812 37.074219 C 85.804688 39.011719 84.652344 68.203125 84.332031 69.691406 Z M 84.335938 69.691406 " fill-opacity="1" fill-rule="evenodd"/><path fill="#000000" d="M 39.964844 57.339844 C 47.722656 59.828125 50.117188 49.945312 45.023438 46.214844 C 37.402344 40.640625 32.710938 55.011719 39.964844 57.339844 Z M 39.964844 57.339844 " fill-opacity="1" fill-rule="evenodd"/><path fill="#000000" d="M 42.542969 13.429688 C 39.039062 2.703125 69.84375 0.046875 67.851562 19.320312 C 66.65625 30.882812 50.628906 28.320312 49.621094 36.277344 C 49.007812 41.15625 46.554688 41.777344 42.339844 39.257812 C 38.816406 37.152344 37.128906 26.972656 46.144531 24.867188 C 47.164062 24.628906 58.996094 23.664062 58.632812 17.179688 C 58.238281 10.171875 48.539062 16.878906 45.765625 15.910156 C 44.277344 15.394531 42.742188 14.046875 42.539062 13.425781 Z M 42.542969 13.429688 " fill-opacity="1" fill-rule="evenodd"/><path fill="#000000" d="M 21.335938 47.734375 C 14.570312 53.257812 18.703125 62.835938 24.820312 60.34375 C 35.304688 56.074219 24.726562 44.964844 21.335938 47.734375 Z M 21.335938 47.734375 " fill-opacity="1" fill-rule="nonzero"/><path fill="#000000" d="M 24.140625 40.453125 C 20.523438 16.011719 22.320312 13.519531 19.511719 8.902344 C 18.089844 6.566406 6.703125 8.3125 4.535156 12.351562 C 2.230469 16.636719 15.46875 41.652344 15.773438 42.003906 C 18.328125 44.914062 20.414062 42.675781 24.140625 40.453125 Z M 24.140625 40.453125 " fill-opacity="1" fill-rule="nonzero"/><path fill="#000000" d="M 66.679688 42.058594 C 60.507812 40.796875 58.226562 52.851562 63.152344 54.632812 C 63.679688 54.820312 70.863281 55.648438 64.433594 59.972656 C 61.910156 61.667969 59.203125 61.242188 58.492188 61.265625 C 58.230469 61.265625 57.976562 61.308594 57.730469 61.394531 L 56.578125 65.820312 C 56.804688 64.8125 56.964844 63.796875 57.066406 62.769531 C 56.066406 65.042969 55.816406 65.566406 54.683594 68.917969 C 62.101562 67.898438 75.542969 67.320312 77.753906 47.945312 C 78.207031 43.945312 74.269531 43.605469 66.679688 42.058594 Z M 66.679688 42.058594 " fill-opacity="1" fill-rule="nonzero"/><path fill="#000000" d="M 57.066406 62.769531 C 57.238281 62.378906 57.433594 61.9375 57.660156 61.421875 C 57.257812 61.621094 57.160156 62.027344 57.066406 62.769531 Z M 57.066406 62.769531 " fill-opacity="1" fill-rule="nonzero"/><path fill="#000000" d="M 57.8125 61.066406 C 57.761719 61.1875 57.710938 61.308594 57.660156 61.421875 L 57.730469 61.390625 Z M 57.8125 61.066406 " fill-opacity="1" fill-rule="nonzero"/><path fill="#000000" d="M 84.496094 67.144531 C 83.234375 77.128906 79.789062 76.625 55.535156 75.972656 C 7.078125 74.671875 4.046875 78.722656 2.355469 72.433594 C 0.539062 65.6875 1.640625 39.785156 6.472656 36.476562 C 7.613281 35.695312 17.101562 36.347656 11.355469 35.824219 C 5.914062 35.332031 6.238281 64.128906 9.644531 67.359375 C 12.742188 70.292969 57.652344 73.921875 84.5 67.144531 Z M 84.496094 67.144531 " fill-opacity="1" fill-rule="evenodd"/><path fill="#000000" d="M 43.871094 43.757812 C 43.355469 43.621094 42.828125 43.53125 42.292969 43.496094 C 41.757812 43.460938 41.226562 43.480469 40.695312 43.550781 C 40.164062 43.617188 39.644531 43.738281 39.136719 43.914062 C 38.628906 44.085938 38.144531 44.304688 37.679688 44.574219 C 37.214844 44.839844 36.78125 45.152344 36.378906 45.503906 C 35.976562 45.859375 35.609375 46.246094 35.285156 46.671875 C 34.957031 47.097656 34.675781 47.550781 34.4375 48.03125 C 34.203125 48.511719 34.015625 49.011719 33.875 49.527344 C 33.738281 50.046875 33.648438 50.570312 33.613281 51.105469 C 33.578125 51.640625 33.597656 52.175781 33.667969 52.707031 C 33.738281 53.238281 33.859375 53.757812 34.03125 54.261719 C 34.203125 54.769531 34.421875 55.257812 34.691406 55.722656 C 34.957031 56.183594 35.269531 56.617188 35.621094 57.019531 C 35.976562 57.425781 36.367188 57.789062 36.789062 58.113281 C 37.214844 58.441406 37.667969 58.722656 38.148438 58.960938 C 38.628906 59.195312 39.128906 59.386719 39.648438 59.523438 C 40.164062 59.664062 40.691406 59.75 41.226562 59.785156 C 41.761719 59.820312 42.292969 59.800781 42.824219 59.730469 C 43.355469 59.660156 43.875 59.539062 44.382812 59.367188 C 44.890625 59.195312 45.375 58.976562 45.839844 58.707031 C 46.304688 58.441406 46.738281 58.128906 47.140625 57.777344 C 47.542969 57.421875 47.90625 57.03125 48.234375 56.609375 C 48.558594 56.183594 48.839844 55.730469 49.078125 55.25 C 49.316406 54.769531 49.503906 54.269531 49.640625 53.75 C 49.785156 53.234375 49.875 52.707031 49.910156 52.171875 C 49.949219 51.636719 49.933594 51.101562 49.863281 50.570312 C 49.796875 50.039062 49.675781 49.519531 49.503906 49.007812 C 49.332031 48.5 49.113281 48.015625 48.84375 47.550781 C 48.574219 47.085938 48.265625 46.652344 47.910156 46.25 C 47.554688 45.84375 47.164062 45.480469 46.738281 45.15625 C 46.3125 44.832031 45.855469 44.550781 45.375 44.316406 C 44.890625 44.078125 44.390625 43.894531 43.871094 43.757812 Z M 46.230469 52.835938 C 46.152344 53.132812 46.042969 53.414062 45.910156 53.6875 C 45.777344 53.960938 45.617188 54.21875 45.429688 54.460938 C 45.246094 54.699219 45.039062 54.921875 44.8125 55.121094 C 44.582031 55.324219 44.335938 55.5 44.074219 55.652344 C 43.808594 55.804688 43.535156 55.929688 43.246094 56.027344 C 42.957031 56.125 42.664062 56.195312 42.363281 56.234375 C 42.0625 56.273438 41.757812 56.285156 41.453125 56.265625 C 41.152344 56.246094 40.851562 56.195312 40.558594 56.117188 C 40.265625 56.039062 39.980469 55.933594 39.707031 55.796875 C 39.4375 55.664062 39.179688 55.503906 38.9375 55.316406 C 38.695312 55.132812 38.476562 54.925781 38.273438 54.699219 C 38.074219 54.46875 37.898438 54.222656 37.746094 53.960938 C 37.59375 53.695312 37.46875 53.421875 37.371094 53.132812 C 37.273438 52.84375 37.203125 52.550781 37.164062 52.246094 C 37.125 51.945312 37.113281 51.644531 37.132812 51.339844 C 37.15625 51.035156 37.203125 50.738281 37.28125 50.445312 C 37.363281 50.148438 37.46875 49.867188 37.601562 49.59375 C 37.738281 49.320312 37.898438 49.066406 38.082031 48.824219 C 38.269531 48.582031 38.476562 48.363281 38.703125 48.160156 C 38.933594 47.960938 39.179688 47.785156 39.441406 47.632812 C 39.707031 47.480469 39.980469 47.355469 40.269531 47.257812 C 40.558594 47.160156 40.851562 47.09375 41.15625 47.054688 C 41.457031 47.011719 41.757812 47.003906 42.0625 47.023438 C 42.367188 47.042969 42.664062 47.09375 42.957031 47.171875 C 43.25 47.25 43.535156 47.359375 43.804688 47.492188 C 44.078125 47.628906 44.335938 47.785156 44.574219 47.972656 C 44.816406 48.15625 45.039062 48.363281 45.238281 48.589844 C 45.4375 48.820312 45.613281 49.066406 45.765625 49.328125 C 45.917969 49.589844 46.042969 49.867188 46.140625 50.152344 C 46.238281 50.441406 46.304688 50.734375 46.347656 51.035156 C 46.386719 51.335938 46.394531 51.640625 46.375 51.941406 C 46.355469 52.246094 46.308594 52.542969 46.230469 52.835938 Z M 46.230469 52.835938 " fill-opacity="1" fill-rule="nonzero"/><path fill="#000000" d="M 78.832031 43.242188 L 63.210938 39.054688 C 62.984375 38.996094 62.757812 38.980469 62.523438 39.011719 C 62.292969 39.042969 62.074219 39.117188 61.871094 39.234375 C 61.667969 39.351562 61.496094 39.503906 61.351562 39.6875 C 61.210938 39.875 61.109375 40.082031 61.046875 40.308594 L 57.699219 52.808594 C 57.636719 53.035156 57.621094 53.261719 57.652344 53.496094 C 57.683594 53.726562 57.757812 53.945312 57.875 54.148438 C 57.992188 54.351562 58.144531 54.523438 58.328125 54.667969 C 58.515625 54.808594 58.722656 54.910156 58.949219 54.972656 L 65.4375 56.710938 C 64.074219 58.703125 61.445312 61.417969 57.816406 59.980469 C 57.582031 59.890625 57.335938 59.847656 57.085938 59.859375 C 56.835938 59.871094 56.597656 59.933594 56.371094 60.046875 C 56.144531 60.160156 55.953125 60.3125 55.792969 60.507812 C 55.636719 60.703125 55.523438 60.921875 55.457031 61.167969 L 53.511719 68.429688 C 53.453125 68.640625 53.4375 68.851562 53.460938 69.066406 C 53.480469 69.28125 53.539062 69.488281 53.636719 69.679688 C 53.734375 69.875 53.863281 70.042969 54.023438 70.191406 C 54.179688 70.335938 54.359375 70.449219 54.5625 70.53125 C 54.703125 70.585938 56.660156 71.34375 59.484375 71.34375 C 62.171875 71.347656 64.691406 70.695312 67.039062 69.382812 C 73.507812 65.789062 77.910156 57.671875 80.125 45.261719 C 80.164062 45.042969 80.160156 44.824219 80.117188 44.605469 C 80.074219 44.390625 79.992188 44.1875 79.871094 44 C 79.753906 43.8125 79.605469 43.652344 79.425781 43.523438 C 79.246094 43.394531 79.046875 43.300781 78.832031 43.242188 Z M 65.367188 66.257812 C 64.15625 66.945312 62.863281 67.410156 61.492188 67.644531 C 60.121094 67.882812 58.75 67.878906 57.375 67.636719 L 58.402344 63.8125 C 64.207031 64.832031 68.277344 59.554688 69.714844 56.3125 C 69.820312 56.074219 69.871094 55.828125 69.867188 55.570312 C 69.863281 55.3125 69.804688 55.066406 69.695312 54.832031 C 69.582031 54.601562 69.429688 54.402344 69.230469 54.234375 C 69.03125 54.070312 68.808594 53.953125 68.558594 53.886719 L 61.5625 52.015625 L 63.996094 42.929688 L 76.332031 46.234375 C 74.269531 56.46875 70.5 63.375 65.375 66.257812 Z M 65.367188 66.257812 " fill-opacity="1" fill-rule="nonzero"/><path fill="#000000" d="M 27.933594 47.335938 C 27.648438 47.171875 27.355469 47.023438 27.054688 46.894531 C 26.753906 46.765625 26.449219 46.652344 26.136719 46.554688 C 25.824219 46.460938 25.503906 46.382812 25.183594 46.324219 C 24.859375 46.265625 24.535156 46.226562 24.210938 46.207031 C 23.882812 46.183594 23.558594 46.183594 23.230469 46.199219 C 22.902344 46.214844 22.578125 46.25 22.253906 46.300781 C 21.933594 46.355469 21.613281 46.425781 21.300781 46.515625 C 20.984375 46.605469 20.675781 46.714844 20.375 46.839844 C 20.070312 46.964844 19.777344 47.109375 19.492188 47.265625 C 19.203125 47.425781 18.929688 47.601562 18.664062 47.792969 C 18.398438 47.980469 18.144531 48.1875 17.898438 48.40625 C 17.65625 48.625 17.429688 48.859375 17.214844 49.105469 C 16.996094 49.351562 16.796875 49.609375 16.609375 49.878906 C 16.421875 50.148438 16.253906 50.425781 16.097656 50.714844 C 15.945312 51.003906 15.808594 51.300781 15.6875 51.605469 C 15.566406 51.910156 15.464844 52.21875 15.378906 52.535156 C 15.296875 52.851562 15.230469 53.171875 15.179688 53.496094 C 15.132812 53.820312 15.105469 54.144531 15.09375 54.472656 C 15.082031 54.796875 15.089844 55.125 15.117188 55.453125 C 15.144531 55.777344 15.191406 56.101562 15.253906 56.421875 C 15.316406 56.742188 15.398438 57.058594 15.5 57.371094 C 15.601562 57.683594 15.71875 57.988281 15.851562 58.285156 C 15.988281 58.582031 16.140625 58.871094 16.308594 59.152344 C 16.476562 59.433594 16.660156 59.703125 16.859375 59.964844 C 17.058594 60.222656 17.273438 60.472656 17.5 60.707031 C 17.726562 60.941406 17.96875 61.164062 18.21875 61.371094 C 18.472656 61.578125 18.738281 61.769531 19.011719 61.949219 C 19.289062 62.125 19.570312 62.285156 19.867188 62.429688 C 20.160156 62.574219 20.460938 62.703125 20.769531 62.8125 C 21.074219 62.921875 21.390625 63.015625 21.707031 63.089844 C 22.027344 63.164062 22.347656 63.21875 22.675781 63.257812 C 23 63.292969 23.324219 63.3125 23.652344 63.3125 C 23.980469 63.3125 24.304688 63.292969 24.632812 63.257812 C 24.957031 63.21875 25.277344 63.164062 25.597656 63.089844 C 25.914062 63.015625 26.230469 62.921875 26.539062 62.8125 C 26.84375 62.703125 27.144531 62.574219 27.441406 62.429688 C 27.734375 62.285156 28.015625 62.125 28.292969 61.945312 C 28.566406 61.769531 28.832031 61.578125 29.085938 61.367188 C 29.335938 61.160156 29.578125 60.941406 29.804688 60.703125 C 30.03125 60.46875 30.246094 60.222656 30.445312 59.960938 C 30.644531 59.703125 30.828125 59.433594 30.996094 59.152344 C 31.164062 58.871094 31.316406 58.582031 31.453125 58.285156 C 31.585938 57.984375 31.703125 57.679688 31.804688 57.367188 C 31.902344 57.058594 31.984375 56.742188 32.050781 56.417969 C 32.113281 56.097656 32.160156 55.773438 32.1875 55.449219 C 32.210938 55.121094 32.21875 54.796875 32.210938 54.46875 C 32.199219 54.140625 32.167969 53.816406 32.121094 53.492188 C 32.074219 53.167969 32.007812 52.847656 31.921875 52.535156 C 31.628906 51.433594 31.140625 50.433594 30.449219 49.535156 C 29.753906 48.632812 28.917969 47.898438 27.933594 47.335938 Z M 24.953125 59.609375 C 24.632812 59.695312 24.308594 59.75 23.980469 59.769531 C 23.648438 59.792969 23.320312 59.78125 22.992188 59.738281 C 22.667969 59.695312 22.347656 59.621094 22.035156 59.515625 C 21.722656 59.410156 21.421875 59.273438 21.136719 59.109375 C 20.851562 58.941406 20.582031 58.75 20.335938 58.535156 C 20.085938 58.316406 19.859375 58.074219 19.660156 57.8125 C 19.460938 57.550781 19.285156 57.273438 19.140625 56.976562 C 18.992188 56.679688 18.878906 56.375 18.792969 56.054688 C 18.707031 55.734375 18.652344 55.410156 18.632812 55.082031 C 18.609375 54.753906 18.621094 54.425781 18.664062 54.097656 C 18.707031 53.769531 18.78125 53.449219 18.886719 53.136719 C 18.992188 52.824219 19.128906 52.523438 19.292969 52.238281 C 19.457031 51.953125 19.648438 51.683594 19.867188 51.4375 C 20.085938 51.1875 20.324219 50.964844 20.585938 50.761719 C 20.847656 50.5625 21.128906 50.386719 21.425781 50.242188 C 21.71875 50.097656 22.027344 49.980469 22.347656 49.894531 C 22.777344 49.78125 23.210938 49.722656 23.65625 49.722656 C 24.265625 49.722656 24.855469 49.832031 25.425781 50.046875 C 25.996094 50.261719 26.507812 50.570312 26.964844 50.972656 C 27.425781 51.378906 27.796875 51.847656 28.082031 52.386719 C 28.371094 52.921875 28.554688 53.492188 28.632812 54.097656 C 28.710938 54.703125 28.683594 55.300781 28.542969 55.894531 C 28.40625 56.488281 28.167969 57.039062 27.828125 57.546875 C 27.488281 58.050781 27.074219 58.484375 26.578125 58.839844 C 26.082031 59.195312 25.539062 59.449219 24.953125 59.609375 Z M 24.953125 59.609375 " fill-opacity="1" fill-rule="nonzero"/><g clip-path="url(#8608ed3fd7)"><path fill="#000000" d="M 83.839844 35.398438 C 83.039062 34.601562 82.117188 33.988281 81.074219 33.554688 C 80.03125 33.121094 78.945312 32.90625 77.816406 32.902344 L 56.894531 32.902344 C 63.789062 30.675781 66.609375 26.660156 67.75 23.46875 C 69.671875 18.09375 67.921875 11.925781 65.199219 8.613281 C 62.105469 4.847656 56.902344 2.746094 51.941406 3.273438 C 47.257812 3.765625 43.445312 6.414062 41.222656 10.71875 C 41.097656 10.953125 41 11.195312 40.925781 11.449219 C 40.851562 11.699219 40.800781 11.957031 40.78125 12.222656 C 40.757812 12.484375 40.757812 12.746094 40.789062 13.007812 C 40.816406 13.269531 40.871094 13.527344 40.953125 13.777344 C 41.03125 14.03125 41.136719 14.269531 41.261719 14.5 C 41.390625 14.730469 41.539062 14.949219 41.710938 15.148438 C 41.882812 15.351562 42.070312 15.53125 42.277344 15.695312 C 42.484375 15.859375 42.707031 16 42.941406 16.121094 C 43.300781 16.308594 43.667969 16.503906 44.035156 16.703125 C 44.640625 17.023438 45.25 17.351562 45.855469 17.660156 C 46.222656 17.839844 46.605469 17.960938 47.007812 18.019531 C 47.410156 18.082031 47.8125 18.082031 48.214844 18.023438 C 48.621094 17.960938 49.003906 17.839844 49.371094 17.664062 C 49.734375 17.484375 50.066406 17.253906 50.363281 16.972656 C 50.363281 16.96875 50.367188 16.964844 50.371094 16.960938 C 52.117188 15.273438 54.121094 15.28125 55.339844 16.039062 C 55.863281 16.363281 57.011719 17.320312 56.414062 19.191406 C 55.238281 22.84375 50.539062 23.371094 45.621094 23.394531 C 44.96875 23.40625 44.332031 23.511719 43.710938 23.722656 C 43.089844 23.929688 42.519531 24.226562 41.992188 24.613281 C 41.464844 25 41.011719 25.460938 40.628906 25.988281 C 40.246094 26.519531 39.953125 27.09375 39.75 27.714844 L 39.714844 27.828125 C 39.074219 29.789062 38.667969 31.015625 38.132812 32.898438 L 25.070312 32.898438 L 21.941406 10.464844 C 21.890625 10.097656 21.804688 9.742188 21.675781 9.394531 C 21.550781 9.046875 21.386719 8.71875 21.191406 8.40625 C 20.992188 8.09375 20.765625 7.804688 20.507812 7.539062 C 20.25 7.273438 19.96875 7.042969 19.660156 6.835938 C 19.351562 6.632812 19.023438 6.464844 18.679688 6.328125 C 18.335938 6.195312 17.984375 6.097656 17.617188 6.039062 C 17.253906 5.976562 16.886719 5.957031 16.519531 5.976562 C 16.148438 5.996094 15.785156 6.050781 15.429688 6.148438 L 6.46875 8.546875 C 6.109375 8.644531 5.769531 8.777344 5.4375 8.945312 C 5.109375 9.113281 4.804688 9.3125 4.515625 9.546875 C 4.230469 9.78125 3.972656 10.042969 3.742188 10.332031 C 3.511719 10.621094 3.3125 10.929688 3.148438 11.261719 C 2.984375 11.589844 2.855469 11.9375 2.765625 12.292969 C 2.675781 12.652344 2.621094 13.015625 2.605469 13.386719 C 2.59375 13.753906 2.617188 14.121094 2.683594 14.484375 C 2.746094 14.847656 2.847656 15.203125 2.984375 15.542969 L 10.023438 32.902344 L 8.792969 32.902344 C 8.234375 32.902344 7.679688 32.957031 7.128906 33.066406 C 6.582031 33.175781 6.050781 33.335938 5.53125 33.550781 C 5.015625 33.765625 4.523438 34.027344 4.058594 34.339844 C 3.59375 34.648438 3.164062 35.003906 2.769531 35.398438 C 2.371094 35.792969 2.019531 36.222656 1.707031 36.6875 C 1.398438 37.15625 1.136719 37.644531 0.921875 38.164062 C 0.707031 38.679688 0.546875 39.210938 0.4375 39.761719 C 0.328125 40.308594 0.273438 40.863281 0.273438 41.421875 L 0.273438 69.742188 C 0.273438 70.300781 0.328125 70.855469 0.4375 71.402344 C 0.546875 71.953125 0.707031 72.484375 0.921875 73 C 1.136719 73.519531 1.398438 74.007812 1.710938 74.472656 C 2.023438 74.9375 2.375 75.367188 2.769531 75.765625 C 3.164062 76.160156 3.597656 76.511719 4.0625 76.824219 C 4.527344 77.132812 5.015625 77.398438 5.535156 77.609375 C 6.050781 77.824219 6.582031 77.988281 7.128906 78.097656 C 7.679688 78.207031 8.234375 78.261719 8.792969 78.261719 L 77.816406 78.261719 C 78.375 78.261719 78.929688 78.207031 79.476562 78.097656 C 80.027344 77.988281 80.558594 77.824219 81.074219 77.609375 C 81.589844 77.398438 82.082031 77.132812 82.546875 76.824219 C 83.011719 76.511719 83.441406 76.160156 83.835938 75.765625 C 84.234375 75.367188 84.585938 74.9375 84.898438 74.472656 C 85.207031 74.007812 85.46875 73.519531 85.683594 73 C 85.898438 72.484375 86.0625 71.953125 86.171875 71.402344 C 86.28125 70.855469 86.335938 70.300781 86.335938 69.742188 L 86.335938 41.421875 C 86.339844 40.292969 86.125 39.203125 85.691406 38.160156 C 85.257812 37.117188 84.640625 36.195312 83.839844 35.398438 Z M 43.113281 28.8125 C 43.292969 28.261719 43.617188 27.8125 44.082031 27.464844 C 44.550781 27.121094 45.074219 26.941406 45.65625 26.929688 C 49.550781 26.910156 57.65625 26.871094 59.777344 20.273438 C 60.695312 17.417969 59.683594 14.578125 57.207031 13.039062 C 54.824219 11.558594 51.027344 11.414062 47.917969 14.417969 C 47.777344 14.554688 47.621094 14.582031 47.441406 14.503906 C 46.875 14.214844 46.285156 13.898438 45.699219 13.585938 C 45.324219 13.386719 44.949219 13.1875 44.550781 12.976562 C 44.4375 12.921875 44.359375 12.832031 44.320312 12.710938 C 44.28125 12.585938 44.292969 12.46875 44.355469 12.355469 C 46.023438 9.132812 48.851562 7.15625 52.316406 6.789062 C 56.125 6.390625 60.105469 7.984375 62.46875 10.855469 C 64.097656 12.835938 66.066406 17.6875 64.421875 22.28125 C 62.984375 26.308594 58.972656 29.082031 52.824219 30.308594 C 52.347656 30.402344 51.894531 30.566406 51.464844 30.800781 C 51.039062 31.03125 50.652344 31.320312 50.3125 31.667969 C 49.972656 32.015625 49.6875 32.402344 49.464844 32.835938 C 49.238281 33.269531 49.082031 33.722656 48.992188 34.203125 C 48.957031 34.339844 48.933594 34.484375 48.929688 34.628906 C 48.808594 35.429688 48.707031 35.964844 48.5625 36.652344 C 48.46875 37.09375 48.234375 37.433594 47.859375 37.679688 C 47.453125 37.933594 47.023438 38 46.558594 37.878906 L 45.445312 37.679688 C 44.355469 37.484375 43.230469 37.28125 42.210938 37.050781 C 41.859375 36.929688 41.585938 36.714844 41.386719 36.40625 C 41.1875 36.097656 41.105469 35.757812 41.136719 35.390625 C 41.222656 35.199219 41.269531 34.996094 41.277344 34.785156 C 41.945312 32.40625 42.332031 31.210938 43.078125 28.921875 Z M 6.257812 14.207031 C 6.171875 13.984375 6.132812 13.753906 6.140625 13.515625 C 6.152344 13.273438 6.210938 13.046875 6.316406 12.832031 C 6.425781 12.617188 6.570312 12.433594 6.757812 12.285156 C 6.941406 12.132812 7.152344 12.023438 7.382812 11.960938 L 16.34375 9.5625 C 16.488281 9.523438 16.632812 9.503906 16.777344 9.503906 C 16.980469 9.503906 17.175781 9.539062 17.367188 9.613281 C 17.554688 9.683594 17.726562 9.785156 17.878906 9.917969 C 18.035156 10.050781 18.160156 10.207031 18.253906 10.382812 C 18.351562 10.5625 18.414062 10.75 18.441406 10.953125 L 21.75 34.675781 L 21.75 34.683594 C 21.75 34.851562 21.773438 35.019531 21.820312 35.183594 L 22.476562 39.898438 L 17.246094 41.300781 L 14.386719 34.25 C 14.347656 34.085938 14.285156 33.933594 14.203125 33.789062 L 6.261719 14.214844 C 6.261719 14.214844 6.257812 14.214844 6.257812 14.207031 Z M 82.761719 69.734375 C 82.761719 70.058594 82.730469 70.382812 82.667969 70.699219 C 82.601562 71.019531 82.507812 71.328125 82.386719 71.628906 C 82.261719 71.925781 82.109375 72.210938 81.925781 72.480469 C 81.746094 72.753906 81.542969 73.003906 81.3125 73.230469 C 81.082031 73.460938 80.832031 73.667969 80.5625 73.847656 C 80.292969 74.027344 80.007812 74.179688 79.707031 74.304688 C 79.40625 74.429688 79.097656 74.523438 78.78125 74.585938 C 78.460938 74.648438 78.140625 74.679688 77.816406 74.679688 L 8.792969 74.679688 C 8.46875 74.679688 8.144531 74.648438 7.828125 74.585938 C 7.507812 74.523438 7.199219 74.429688 6.898438 74.304688 C 6.601562 74.179688 6.316406 74.027344 6.046875 73.847656 C 5.773438 73.667969 5.523438 73.460938 5.296875 73.230469 C 5.066406 73.003906 4.859375 72.753906 4.679688 72.480469 C 4.5 72.210938 4.347656 71.925781 4.222656 71.628906 C 4.097656 71.328125 4.003906 71.019531 3.941406 70.699219 C 3.878906 70.382812 3.84375 70.058594 3.84375 69.734375 L 3.84375 41.421875 C 3.84375 40.765625 3.96875 40.132812 4.21875 39.527344 C 4.46875 38.921875 4.828125 38.386719 5.292969 37.921875 C 5.757812 37.460938 6.292969 37.105469 6.898438 36.855469 C 7.503906 36.605469 8.132812 36.480469 8.789062 36.476562 L 11.46875 36.476562 L 14.050781 42.847656 C 14.300781 43.464844 14.703125 43.960938 15.257812 44.332031 C 15.8125 44.703125 16.421875 44.890625 17.089844 44.890625 C 17.375 44.894531 17.65625 44.855469 17.933594 44.78125 L 23.609375 43.261719 C 23.996094 43.15625 24.351562 42.988281 24.675781 42.753906 C 25 42.523438 25.273438 42.238281 25.492188 41.90625 C 25.714844 41.570312 25.867188 41.210938 25.957031 40.820312 C 26.046875 40.429688 26.0625 40.039062 26.007812 39.644531 L 25.5625 36.476562 L 37.675781 36.476562 C 37.761719 36.941406 37.910156 37.382812 38.117188 37.804688 C 38.324219 38.226562 38.582031 38.613281 38.894531 38.964844 C 39.210938 39.3125 39.5625 39.617188 39.960938 39.871094 C 40.355469 40.121094 40.777344 40.320312 41.226562 40.457031 C 41.265625 40.464844 41.304688 40.476562 41.339844 40.484375 C 42.464844 40.746094 43.660156 40.960938 44.816406 41.164062 L 45.839844 41.347656 C 46.214844 41.433594 46.59375 41.472656 46.976562 41.472656 C 47.566406 41.472656 48.140625 41.375 48.699219 41.175781 C 49.257812 40.980469 49.765625 40.695312 50.226562 40.320312 C 50.683594 39.945312 51.066406 39.507812 51.375 39 C 51.683594 38.496094 51.894531 37.953125 52.015625 37.375 C 52.078125 37.0625 52.140625 36.773438 52.195312 36.476562 L 77.816406 36.476562 C 78.472656 36.476562 79.101562 36.601562 79.707031 36.851562 C 80.3125 37.101562 80.847656 37.460938 81.3125 37.921875 C 81.777344 38.382812 82.136719 38.917969 82.386719 39.527344 C 82.640625 40.132812 82.761719 40.765625 82.761719 41.421875 Z M 82.761719 69.734375 " fill-opacity="1" fill-rule="nonzero"/></g></svg>