<svg xmlns="http://www.w3.org/2000/svg" xmlns:xlink="http://www.w3.org/1999/xlink" width="116" zoomAndPan="magnify" viewBox="0 0 87 77.249999" height="103" preserveAspectRatio="xMidYMid meet" version="1.0"><defs><clipPath id="dbbedd9615"><path d="M 0.417969 0 L 85.839844 0 L 85.839844 76.507812 L 0.417969 76.507812 Z M 0.417969 0 " clip-rule="nonzero"/></clipPath></defs><g clip-path="url(#dbbedd9615)"><path fill="#000000" d="M 56.492188 76.503906 L 37.003906 76.503906 C 36.742188 76.503906 36.53125 76.292969 36.53125 76.035156 L 36.53125 72.441406 C 36.53125 72.316406 36.574219 72.210938 36.660156 72.121094 C 38.777344 69.835938 40.667969 67.457031 42.386719 64.898438 C 43.160156 66.117188 44.515625 66.925781 46.054688 66.925781 L 55.117188 66.925781 L 55.117188 67.445312 C 55.117188 68.601562 55.636719 69.597656 56.4375 70.292969 L 56.4375 76.054688 C 56.4375 76.210938 56.457031 76.359375 56.492188 76.503906 Z M 50.394531 21.679688 C 50.386719 21.636719 50.382812 21.589844 50.382812 21.546875 C 41.148438 21.398438 32.738281 18.332031 26.546875 13.765625 C 26.378906 13.640625 26.160156 13.640625 25.992188 13.765625 C 23.097656 15.902344 22.609375 19.035156 22.300781 21.851562 C 22.257812 22.21875 21.863281 22.105469 21.371094 21.832031 C 21.355469 21.867188 21.335938 21.902344 21.316406 21.9375 C 21.574219 27.164062 22.902344 31.292969 25.292969 34.359375 C 27.707031 37.457031 31.226562 39.5 35.847656 40.523438 C 39.273438 39.765625 42.097656 38.445312 44.3125 36.550781 C 44.367188 36.484375 44.429688 36.425781 44.507812 36.378906 C 45.203125 35.765625 45.835938 35.09375 46.40625 34.359375 C 48.832031 31.242188 50.164062 27.027344 50.394531 21.679688 Z M 52.046875 19.941406 L 52.046875 16.296875 C 52.046875 7.335938 44.75 0 35.832031 0 C 33.214844 0 28.101562 0.425781 26.914062 3.171875 C 26.710938 3.648438 26.292969 3.949219 25.777344 3.992188 C 20.5 4.441406 19.613281 11.554688 19.613281 16.296875 L 19.613281 19.871094 C 19.042969 19.609375 18.519531 19.558594 18.058594 19.664062 C 17.179688 19.871094 16.585938 20.605469 16.320312 21.597656 C 16.09375 22.457031 16.113281 23.53125 16.425781 24.574219 C 16.972656 26.410156 18.40625 28.183594 20.9375 28.597656 C 21.65625 31.160156 22.742188 33.363281 24.191406 35.226562 C 24.753906 35.949219 25.371094 36.617188 26.039062 37.234375 L 25.683594 39.054688 L 25.683594 39.058594 L 24.78125 43.667969 L 23.765625 43.792969 C 23.761719 43.792969 23.757812 43.792969 23.75 43.792969 C 22.9375 43.925781 22.160156 44.058594 21.40625 44.199219 C 21.265625 44.226562 21.15625 44.304688 21.085938 44.425781 C 21.015625 44.550781 21.003906 44.6875 21.050781 44.820312 C 23.078125 50.539062 25.160156 55.386719 27.554688 59.679688 C 29.820312 63.746094 32.363281 67.3125 35.398438 70.660156 C 35.492188 70.761719 35.609375 70.816406 35.746094 70.816406 C 35.882812 70.816406 36 70.761719 36.09375 70.660156 C 38.199219 68.339844 40.066406 65.914062 41.769531 63.289062 C 41.730469 63.050781 41.707031 62.808594 41.707031 62.558594 C 41.707031 60.664062 42.921875 59.042969 44.609375 58.441406 L 44.710938 58.25 L 44.722656 58.136719 C 45.109375 53.613281 47 49.539062 49.875 46.394531 C 50.066406 45.867188 50.261719 45.332031 50.453125 44.789062 C 50.5 44.65625 50.488281 44.519531 50.417969 44.398438 C 50.34375 44.273438 50.234375 44.195312 50.09375 44.167969 C 49.394531 44.039062 48.664062 43.914062 47.910156 43.792969 C 47.90625 43.792969 47.902344 43.792969 47.894531 43.792969 L 46.878906 43.667969 L 46.835938 43.449219 L 46.835938 43.445312 L 45.628906 37.261719 C 46.308594 36.636719 46.9375 35.957031 47.507812 35.226562 C 48.953125 33.371094 50.035156 31.167969 50.757812 28.617188 C 53.359375 28.238281 54.828125 26.4375 55.386719 24.574219 C 55.699219 23.53125 55.71875 22.457031 55.488281 21.597656 C 55.226562 20.605469 54.632812 19.871094 53.753906 19.664062 C 53.25 19.550781 52.675781 19.621094 52.046875 19.941406 Z M 51.132812 27.105469 C 51.484375 25.480469 51.703125 23.726562 51.789062 21.84375 C 52.507812 21.167969 53.058594 20.949219 53.441406 21.039062 C 53.761719 21.113281 54.003906 21.46875 54.136719 21.960938 C 54.300781 22.582031 54.28125 23.378906 54.042969 24.171875 C 53.664062 25.433594 52.734375 26.65625 51.132812 27.105469 Z M 58.292969 76.503906 L 70.65625 76.503906 C 70.902344 76.503906 71.105469 76.304688 71.105469 76.054688 L 71.105469 71.035156 C 70.652344 71.199219 70.164062 71.285156 69.667969 71.285156 L 59.28125 71.285156 C 58.785156 71.285156 58.296875 71.199219 57.84375 71.035156 L 57.84375 76.054688 C 57.84375 76.304688 58.042969 76.503906 58.292969 76.503906 Z M 59.28125 69.9375 L 69.667969 69.9375 C 71.183594 69.9375 72.425781 68.816406 72.425781 67.445312 L 72.425781 64.191406 C 72.425781 63.542969 71.839844 63.011719 71.121094 63.011719 L 57.828125 63.011719 C 57.109375 63.011719 56.523438 63.542969 56.523438 64.191406 L 56.523438 67.445312 C 56.523438 68.816406 57.761719 69.9375 59.28125 69.9375 Z M 66.722656 40.109375 L 66.722656 39.273438 C 66.722656 38.085938 65.757812 37.113281 64.578125 37.113281 C 63.394531 37.113281 62.429688 38.085938 62.429688 39.273438 L 62.429688 40.085938 C 63.101562 40.015625 63.785156 39.980469 64.472656 39.980469 C 65.234375 39.980469 65.984375 40.023438 66.722656 40.109375 Z M 82.828125 58.257812 L 46.121094 58.257812 C 46.925781 48.808594 54.871094 41.328125 64.472656 41.328125 C 74.074219 41.328125 82.023438 48.808594 82.828125 58.257812 Z M 46.054688 65.515625 L 55.179688 65.515625 L 55.179688 64.191406 C 55.179688 62.746094 56.421875 61.664062 57.828125 61.664062 L 71.121094 61.664062 C 72.527344 61.664062 73.769531 62.746094 73.769531 64.191406 L 73.769531 65.515625 L 82.894531 65.515625 C 84.511719 65.515625 85.835938 64.1875 85.835938 62.5625 L 85.835938 62.558594 C 85.835938 60.933594 84.511719 59.605469 82.894531 59.605469 L 46.054688 59.605469 C 44.433594 59.605469 43.113281 60.933594 43.113281 62.558594 L 43.113281 62.5625 C 43.113281 64.1875 44.433594 65.515625 46.054688 65.515625 Z M 27.269531 38.257812 C 29.554688 39.992188 32.363281 41.210938 35.691406 41.929688 C 35.789062 41.953125 35.890625 41.957031 35.992188 41.933594 C 39.3125 41.21875 42.113281 40.003906 44.398438 38.28125 L 44.671875 39.6875 L 44.671875 39.695312 L 45.644531 44.660156 C 45.429688 44.882812 45.15625 45.09375 44.824219 45.292969 L 44.824219 51.171875 C 44.824219 51.824219 44.519531 52.417969 43.996094 52.800781 C 43.472656 53.179688 42.8125 53.285156 42.199219 53.082031 L 38.222656 51.773438 C 37.53125 52.222656 36.710938 52.484375 35.824219 52.484375 C 34.941406 52.484375 34.121094 52.222656 33.429688 51.773438 L 29.460938 53.082031 C 28.847656 53.285156 28.1875 53.179688 27.664062 52.800781 C 27.140625 52.417969 26.839844 51.824219 26.839844 51.171875 L 26.839844 45.292969 C 26.507812 45.09375 26.230469 44.882812 26.019531 44.660156 L 26.203125 43.722656 L 26.203125 43.714844 Z M 35.832031 59.640625 C 36.4375 59.640625 36.925781 60.132812 36.925781 60.742188 C 36.925781 61.347656 36.4375 61.84375 35.832031 61.84375 C 35.226562 61.84375 34.734375 61.347656 34.734375 60.742188 C 34.734375 60.132812 35.226562 59.640625 35.832031 59.640625 Z M 35.832031 53.546875 C 36.4375 53.546875 36.925781 54.039062 36.925781 54.648438 C 36.925781 55.257812 36.4375 55.75 35.832031 55.75 C 35.226562 55.75 34.734375 55.257812 34.734375 54.648438 C 34.734375 54.039062 35.226562 53.546875 35.832031 53.546875 Z M 35.832031 65.730469 C 35.226562 65.730469 34.734375 66.226562 34.734375 66.832031 C 34.734375 67.441406 35.226562 67.933594 35.832031 67.933594 C 36.4375 67.933594 36.925781 67.441406 36.925781 66.832031 C 36.925781 66.226562 36.4375 65.730469 35.832031 65.730469 Z M 34.660156 76.503906 L 14.664062 76.503906 C 14.527344 76.503906 14.414062 76.453125 14.320312 76.355469 C 14.226562 76.253906 14.1875 76.132812 14.195312 75.996094 L 14.96875 65.980469 C 14.96875 65.945312 15.007812 65.871094 15.042969 65.792969 C 15.09375 65.691406 15.140625 65.589844 15.191406 65.449219 C 16.234375 62.359375 16.902344 59.957031 17.09375 57.015625 C 17.285156 54.144531 17.015625 50.789062 16.199219 45.796875 C 16.15625 45.554688 16.308594 45.324219 16.542969 45.265625 C 17.34375 45.054688 18.183594 44.855469 19.074219 44.664062 C 19.308594 44.613281 19.535156 44.742188 19.617188 44.964844 C 21.707031 50.910156 23.855469 55.929688 26.332031 60.371094 C 28.804688 64.804688 31.605469 68.667969 35 72.300781 C 35.085938 72.390625 35.128906 72.5 35.128906 72.625 L 35.128906 76.035156 C 35.128906 76.292969 34.917969 76.503906 34.660156 76.503906 Z M 12.316406 76.503906 C 12.5625 76.503906 12.765625 76.316406 12.785156 76.070312 L 13.570312 65.875 C 13.589844 65.574219 13.6875 65.378906 13.785156 65.175781 C 13.816406 65.109375 13.847656 65.042969 13.863281 64.996094 C 14.871094 62.015625 15.511719 59.707031 15.695312 56.925781 C 15.882812 54.125 15.609375 50.804688 14.777344 45.804688 C 14.777344 45.800781 14.777344 45.796875 14.777344 45.792969 L 14.773438 45.761719 C 0.164062 50.183594 2.066406 58.28125 0.441406 75.992188 C 0.429688 76.128906 0.46875 76.25 0.5625 76.351562 C 0.652344 76.453125 0.773438 76.503906 0.910156 76.503906 Z M 35.824219 45.007812 C 37.492188 45.007812 38.84375 46.367188 38.84375 48.039062 C 38.84375 49.714844 37.492188 51.074219 35.824219 51.074219 C 34.160156 51.074219 32.808594 49.714844 32.808594 48.039062 C 32.808594 46.367188 34.160156 45.007812 35.824219 45.007812 Z M 39.386719 50.671875 C 39.925781 49.933594 40.246094 49.023438 40.246094 48.039062 C 40.246094 47.054688 39.925781 46.144531 39.386719 45.410156 L 42.636719 44.339844 C 42.824219 44.277344 43.011719 44.308594 43.171875 44.421875 C 43.332031 44.539062 43.417969 44.710938 43.417969 44.90625 L 43.417969 51.171875 C 43.417969 51.371094 43.332031 51.542969 43.171875 51.65625 C 43.011719 51.773438 42.824219 51.804688 42.636719 51.742188 Z M 32.265625 50.675781 L 29.023438 51.742188 C 28.835938 51.804688 28.648438 51.773438 28.488281 51.65625 C 28.328125 51.542969 28.242188 51.371094 28.242188 51.171875 L 28.242188 44.90625 C 28.242188 44.710938 28.328125 44.539062 28.488281 44.421875 C 28.648438 44.308594 28.835938 44.277344 29.023438 44.339844 L 32.265625 45.40625 C 31.722656 46.144531 31.402344 47.054688 31.402344 48.039062 C 31.402344 49.027344 31.722656 49.9375 32.265625 50.675781 Z M 20.558594 27.070312 C 19.027344 26.59375 18.136719 25.402344 17.769531 24.171875 C 17.53125 23.378906 17.511719 22.582031 17.675781 21.960938 C 17.808594 21.46875 18.046875 21.113281 18.371094 21.039062 C 18.730469 20.953125 19.242188 21.144531 19.90625 21.738281 C 19.988281 23.648438 20.203125 25.425781 20.558594 27.070312 Z M 20.558594 27.070312 " fill-opacity="1" fill-rule="evenodd"/></g></svg>